<svg xmlns="http://www.w3.org/2000/svg" xmlns:xlink="http://www.w3.org/1999/xlink" viewBox="0 0 401 148"><defs><style>.cls-1{isolation:isolate;}.cls-2{fill:#11113d;}.cls-3{fill:url(#Degradado_sin_nombre_67);}.cls-4{fill:url(#Degradado_sin_nombre_67-2);}.cls-5{fill:url(#Degradado_sin_nombre_67-3);}.cls-6{fill:url(#Degradado_sin_nombre_67-4);}.cls-7{mix-blend-mode:soft-light;fill:url(#Degradado_sin_nombre_32);}.cls-8{opacity:0.46;mix-blend-mode:multiply;fill:url(#Degradado_sin_nombre_5);}.cls-9{fill:#fff;}.cls-10{fill:#ff227e;}</style><linearGradient id="Degradado_sin_nombre_67" x1="114.55" y1="14.33" x2="42.76" y2="111.7" gradientUnits="userSpaceOnUse"><stop offset="0" stop-color="#ff8f00"/><stop offset="0.52" stop-color="#ff227e"/><stop offset="1" stop-color="#8c52f8"/></linearGradient><linearGradient id="Degradado_sin_nombre_67-2" x1="133.15" y1="28.05" x2="61.37" y2="125.41" xlink:href="#Degradado_sin_nombre_67"/><linearGradient id="Degradado_sin_nombre_67-3" x1="173.44" y1="57.75" x2="101.66" y2="155.11" xlink:href="#Degradado_sin_nombre_67"/><linearGradient id="Degradado_sin_nombre_67-4" x1="128.09" y1="24.32" x2="56.31" y2="121.68" xlink:href="#Degradado_sin_nombre_67"/><linearGradient id="Degradado_sin_nombre_32" x1="118.43" y1="36.54" x2="116.85" y2="77.7" gradientUnits="userSpaceOnUse"><stop offset="0" stop-color="#fff" stop-opacity="0"/><stop offset="1" stop-color="#fff"/></linearGradient><linearGradient id="Degradado_sin_nombre_5" x1="70.51" y1="67.08" x2="68.91" y2="108.66" gradientUnits="userSpaceOnUse"><stop offset="0" stop-color="#560971"/><stop offset="1" stop-color="#470973" stop-opacity="0"/></linearGradient></defs><g class="cls-1"><g id="Layer_2" data-name="Layer 2"><rect class="cls-2" width="400" height="148"/></g><g id="Layer_1" data-name="Layer 1"><path class="cls-3" d="M140.7,71.93l4.51-28.05H42.56l-3.9-22a3.87,3.87,0,0,0-3.82-3.2H18.39a3.18,3.18,0,0,0-3.17,3.49,3.28,3.28,0,0,0,3.3,2.87H32a.92.92,0,0,1,.91.76l15.91,89.79h83.86a3.28,3.28,0,0,0,3.31-2.87,3.19,3.19,0,0,0-3.17-3.5H54.14l-1.41-8H136ZM92.6,94.05a21.47,21.47,0,1,1,21.47-21.47A21.46,21.46,0,0,1,92.6,94.05Z"/><circle class="cls-4" cx="61.11" cy="125.77" r="5.51"/><circle class="cls-5" cx="123.29" cy="125.77" r="5.51"/><path class="cls-6" d="M88.57,83.73,91,81a13.72,13.72,0,0,1,9.25-4.49l3.63-.25a1.71,1.71,0,0,0,.93-3.06L88.57,60.68A1.72,1.72,0,0,0,85.81,62L85.6,82.56A1.71,1.71,0,0,0,88.57,83.73Z"/><path class="cls-7" d="M145.21,43.88,140.7,71.93c-7.35-17.71-31.3-25-49.61-28.05Z"/><path class="cls-8" d="M52.73,101.28l-5.12-28.7S61.24,95,91.89,101.28Z"/><path class="cls-9" d="M171.71,71.16l.56-7.48.41-8.65.26-7.87V44.5q4.81,0,10.05,0l3.75,0,5.65,0-.23,4.22-1.86-.1c-.51,0-1.21,0-2.11,0s-1.82,0-2.75,0H181.5c-.59,0-1.49,0-2.68.06l-.32,6.94c1.78,0,3.58.06,5.39.06q1.88,0,6.33-.12-.15,1.77-.27,4.26l-6-.06c-1.53,0-3.45,0-5.74.12l-.32,7.3,2.15,0,4.3,0L188.6,67l2.83-.13c-.13,1.51-.22,2.93-.27,4.27-3.39,0-6.44,0-9.16,0l-6.43,0Z"/><path class="cls-9" d="M214.73,55.93c1.8,0,3.52,0,5.16,0,2.15,0,3.94,0,5.37,0q-.51,6.54-.73,14.53c-2.16.43-4.12.73-5.86.91s-3.23.26-4.45.26a26.8,26.8,0,0,1-6.38-.72,12.73,12.73,0,0,1-5-2.34,10.33,10.33,0,0,1-3.09-4.27,15.18,15.18,0,0,1-.27-10.46,13.86,13.86,0,0,1,2.34-4.3,13.5,13.5,0,0,1,3.75-3.25,14.42,14.42,0,0,1,4.67-1.78,27.38,27.38,0,0,1,5.22-.48,43.48,43.48,0,0,1,8.71,1c0,1.48.09,3,.22,4.65a26.52,26.52,0,0,0-8.34-1.54,14.67,14.67,0,0,0-4.54.68A9.53,9.53,0,0,0,207.85,51a9.25,9.25,0,0,0-2.37,3.55,12.24,12.24,0,0,0-.81,4.39,10.46,10.46,0,0,0,.93,4.5,6.55,6.55,0,0,0,3.11,3.08,11.1,11.1,0,0,0,5,1.09,18.16,18.16,0,0,0,2.45-.19,19.07,19.07,0,0,0,2.93-.63l.32-6.86-1.55,0q-1.31,0-3.33.06C214.67,58.19,214.73,56.85,214.73,55.93Z"/><path class="cls-9" d="M230.68,62.8c.12-1.26.19-2.57.22-3.94,1.89,0,3.57.08,5,.08s3.17,0,5.06-.08c-.11,1.11-.18,2.42-.22,3.94-1.89-.06-3.58-.09-5.08-.09S232.57,62.74,230.68,62.8Z"/><path class="cls-9" d="M245.88,70.6c-.11-2-.25-3.6-.41-4.85a17,17,0,0,0,6.95,1.74,7.07,7.07,0,0,0,2.33-.38,3.21,3.21,0,0,0,1.6-1.07,2.53,2.53,0,0,0,.52-1.56,2.7,2.7,0,0,0-.25-1.19,5.51,5.51,0,0,0-1.24-1.5c-.75-.72-2.07-1.9-4-3.54-.91-.79-1.53-1.36-1.88-1.7a14.32,14.32,0,0,1-1.8-2,6.44,6.44,0,0,1-.9-1.77,6.4,6.4,0,0,1,.76-5.32,6.79,6.79,0,0,1,3.06-2.52,12.8,12.8,0,0,1,5.15-.91,32.83,32.83,0,0,1,6.29.69q.09,2,.39,4.65a15.57,15.57,0,0,0-5.62-1.18,5.23,5.23,0,0,0-3.12.87,2.47,2.47,0,0,0-1.22,2,3.13,3.13,0,0,0,.08.66,2.67,2.67,0,0,0,.26.66,4.54,4.54,0,0,0,.6.84,9.69,9.69,0,0,0,1.28,1.21c.56.47,1,.84,1.43,1.13l2.41,2.18c.61.51,1.16,1,1.64,1.49a13.5,13.5,0,0,1,1.23,1.39,6.37,6.37,0,0,1,.81,1.27,5.55,5.55,0,0,1,.44,1.24,5.71,5.71,0,0,1,.15,1.33,6.55,6.55,0,0,1-.76,3.1A6.35,6.35,0,0,1,259.88,70a8.92,8.92,0,0,1-3.13,1.3,17.27,17.27,0,0,1-3.59.36,23.64,23.64,0,0,1-2.91-.21C249.14,71.27,247.69,71,245.88,70.6Z"/><path class="cls-9" d="M276,71.16l.43-5.7.43-8.5.27-8.36h-1.37l-1.26,0-1.21,0-4.51.14c.11-1.87.17-3.3.18-4.28q5.63,0,11.77,0l7,0,3.75,0c-.13,1.86-.2,3.28-.2,4.28q-3.53-.18-6.77-.18H283l-.23,3.57-.56,13.73,0,2.3c0,1,0,1.94,0,3l-3,0Z"/><path class="cls-9" d="M311.67,44a19.57,19.57,0,0,1,5.59.8A12.8,12.8,0,0,1,322,47.44a12.05,12.05,0,0,1,3.13,4.21,13.9,13.9,0,0,1,1.05,5.61,16.83,16.83,0,0,1-1,5.75,12.31,12.31,0,0,1-3.09,4.73A12.9,12.9,0,0,1,317,70.67a20.54,20.54,0,0,1-6.3,1,20.31,20.31,0,0,1-6-.88,12.8,12.8,0,0,1-5-2.75,10.8,10.8,0,0,1-3-4.31,15,15,0,0,1-.9-5.26A16,16,0,0,1,297,52.49a11.76,11.76,0,0,1,3.3-4.69,15.24,15.24,0,0,1,5.1-2.81A20,20,0,0,1,311.67,44Zm-.31,4.16a9.59,9.59,0,0,0-5.14,1.36,8.58,8.58,0,0,0-3.29,3.71,11.94,11.94,0,0,0-1.1,5.09A10.37,10.37,0,0,0,302.89,63a7.22,7.22,0,0,0,3.27,3.26,10.69,10.69,0,0,0,8.46.46,8.11,8.11,0,0,0,3-2,8.9,8.9,0,0,0,1.92-3.27,12.45,12.45,0,0,0,.65-4,12.1,12.1,0,0,0-.58-3.71,8,8,0,0,0-1.79-3.06,7.45,7.45,0,0,0-2.92-1.89A10.49,10.49,0,0,0,311.36,48.19Z"/><path class="cls-9" d="M333.05,71.16q.6-5.82.89-13.38t.29-13.28c1.56,0,2.87,0,3.93,0s2.24,0,3.33-.06,2.23-.06,3.44-.06a28.81,28.81,0,0,1,4.05.26,7.7,7.7,0,0,1,3.18,1.17,6,6,0,0,1,2.06,2.23,6.55,6.55,0,0,1,.67,3,8.23,8.23,0,0,1-.25,2.08,7.21,7.21,0,0,1-.76,1.86,6.38,6.38,0,0,1-1.18,1.52,7.1,7.1,0,0,1-1.35,1,8.1,8.1,0,0,1-1.54.65c-.57.19-1.34.41-2.3.67l1.33,2.57c.43.82,1.24,2.3,2.44,4.42l2,3.46c.1.18.42.77.94,1.77l-3.16,0-3.31,0L345.56,66c-.38-.8-.83-1.73-1.36-2.81l-2.36-4.75c-.24-.44-.56-1.11-1-2a14.23,14.23,0,0,0,2.39.23,8.13,8.13,0,0,0,3.06-.55,4.29,4.29,0,0,0,2.13-1.68,4.5,4.5,0,0,0,.75-2.5,3.7,3.7,0,0,0-.32-1.52,2.87,2.87,0,0,0-1.09-1.19,4.42,4.42,0,0,0-1.82-.63,16.44,16.44,0,0,0-2.1-.13l-1.61,0-2.5,0-.34,8L339,71.16l-3,0Z"/><path class="cls-9" d="M361.51,71.16l.56-7.48.41-8.65.26-7.87V44.5c3.21,0,6.57,0,10.06,0l3.75,0,5.64,0L382,48.72l-1.86-.1c-.51,0-1.21,0-2.11,0s-1.81,0-2.75,0H371.3c-.59,0-1.48,0-2.68.06l-.32,6.94c1.78,0,3.58.06,5.39.06q1.88,0,6.33-.12-.15,1.77-.27,4.26l-6-.06c-1.54,0-3.45,0-5.75.12l-.31,7.3,2.15,0,4.29,0L378.4,67l2.84-.13c-.13,1.51-.23,2.93-.28,4.27-3.38,0-6.44,0-9.16,0l-6.42,0Z"/><path class="cls-10" d="M195.4,102v9c0,3.85-1.81,5.49-5.19,5.49-3.22,0-4.87-1.68-4.87-5.45v-9.11c0-3.74,2.06-5.37,5-5.37S195.4,98.12,195.4,102Zm-6.29-.42v9.89c0,1.2.41,1.82,1.24,1.82s1.26-.57,1.26-1.84v-9.9c0-1.21-.33-1.83-1.27-1.83C189.55,99.71,189.11,100.28,189.11,101.57Z"/><path class="cls-10" d="M204.64,116.16V96.81h4.12c.62,2.36,2.56,11.13,2.71,12h.09c-.21-2.58-.34-6.1-.34-8.8V96.81h3.46v19.35h-4.16c-.4-1.84-2.52-11.85-2.64-12.47h-.1c.14,2.27.26,6.12.26,9.17v3.3Z"/><path class="cls-10" d="M224.25,96.81H228v16.1h4.68l-.33,3.25h-8.07Z"/><path class="cls-10" d="M244.79,96.81v19.35h-3.71V96.81Z"/><path class="cls-10" d="M254.38,116.16V96.81h4.12c.61,2.36,2.55,11.13,2.7,12h.09c-.2-2.58-.33-6.1-.33-8.8V96.81h3.45v19.35h-4.16c-.4-1.84-2.51-11.85-2.64-12.47h-.1c.15,2.27.26,6.12.26,9.17v3.3Z"/><path class="cls-10" d="M281.68,107.61h-4v5.28h4.68l-.45,3.27h-8V96.81h7.93v3.29h-4.2v4.24h4Z"/><path class="cls-10" d="M305,110.2v1.34c0,1.27.31,1.86,1.16,1.86s1.06-.87,1.06-1.79c0-1.82-.34-2.35-2.32-4-2.18-1.84-3.3-2.94-3.3-5.79s.92-5.31,4.58-5.31c3.9,0,4.47,2.65,4.47,4.87v1.11h-3.52v-1.16c0-1.17-.19-1.75-.92-1.75s-.91.59-.91,1.68.21,1.75,1.81,3c2.85,2.23,3.87,3.49,3.87,6.68,0,3-1,5.52-4.88,5.52s-4.75-2.22-4.75-5.09V110.2Z"/><path class="cls-10" d="M319.83,96.81h3.73v7.45H326V96.81h3.75v19.35H326v-8.62h-2.42v8.62h-3.73Z"/><path class="cls-10" d="M349,102v9c0,3.85-1.81,5.49-5.19,5.49-3.21,0-4.87-1.68-4.87-5.45v-9.11c0-3.74,2.06-5.37,5-5.37S349,98.12,349,102Zm-6.29-.42v9.89c0,1.2.41,1.82,1.24,1.82s1.26-.57,1.26-1.84v-9.9c0-1.21-.33-1.83-1.27-1.83S342.75,100.28,342.75,101.57Z"/><path class="cls-10" d="M358.28,96.81h5c3.21,0,4.8,1.7,4.8,5.13v1.18c0,3.39-1.27,5.43-4.95,5.43H362v7.61h-3.73Zm3.73,8.73h.6c1.42,0,1.72-.79,1.72-2.41V101.8c0-1.25-.3-2.06-1.54-2.06H362Z"/></g></g></svg>