<svg xmlns="http://www.w3.org/2000/svg" xmlns:xlink="http://www.w3.org/1999/xlink" viewBox="0 0 300 270"><defs><style>.cls-1{isolation:isolate;}.cls-2{fill:url(#Degradado_sin_nombre_67);}.cls-3{fill:url(#Degradado_sin_nombre_67-2);}.cls-4{fill:url(#Degradado_sin_nombre_67-3);}.cls-5{fill:url(#Degradado_sin_nombre_67-4);}.cls-6{mix-blend-mode:soft-light;fill:url(#Degradado_sin_nombre_32);}.cls-7{opacity:0.46;mix-blend-mode:multiply;fill:url(#Degradado_sin_nombre_5);}</style><linearGradient id="Degradado_sin_nombre_67" x1="223.96" y1="4.33" x2="69.35" y2="214.04" gradientUnits="userSpaceOnUse"><stop offset="0" stop-color="#ff8f00"/><stop offset="0.52" stop-color="#ff227e"/><stop offset="1" stop-color="#8c52f8"/></linearGradient><linearGradient id="Degradado_sin_nombre_67-2" x1="264.03" y1="33.88" x2="109.43" y2="243.58" xlink:href="#Degradado_sin_nombre_67"/><linearGradient id="Degradado_sin_nombre_67-3" x1="350.8" y1="97.85" x2="196.2" y2="307.55" xlink:href="#Degradado_sin_nombre_67"/><linearGradient id="Degradado_sin_nombre_67-4" x1="253.13" y1="25.84" x2="98.53" y2="235.55" xlink:href="#Degradado_sin_nombre_67"/><linearGradient id="Degradado_sin_nombre_32" x1="232.32" y1="52.16" x2="228.91" y2="140.81" gradientUnits="userSpaceOnUse"><stop offset="0" stop-color="#fff" stop-opacity="0"/><stop offset="1" stop-color="#fff"/></linearGradient><linearGradient id="Degradado_sin_nombre_5" x1="129.12" y1="117.95" x2="125.67" y2="207.5" gradientUnits="userSpaceOnUse"><stop offset="0" stop-color="#560971"/><stop offset="1" stop-color="#470973" stop-opacity="0"/></linearGradient></defs><g class="cls-1"><g id="Layer_1" data-name="Layer 1"><path class="cls-2" d="M280.3,128.39,290,68H68.91l-8.39-47.3a8.36,8.36,0,0,0-8.23-6.9H16.85A6.85,6.85,0,0,0,10,21.31a7,7,0,0,0,7.1,6.16h29a2,2,0,0,1,2,1.64L82.37,222.5H263a7.05,7.05,0,0,0,7.12-6.18,6.86,6.86,0,0,0-6.82-7.52H93.86l-3-17.19H270.14ZM176.7,176a46.23,46.23,0,1,1,46.23-46.23A46.23,46.23,0,0,1,176.7,176Z"/><circle class="cls-3" cx="108.87" cy="244.35" r="11.87"/><circle class="cls-4" cx="242.8" cy="244.35" r="11.87"/><path class="cls-5" d="M168,153.8l5.27-5.81a29.61,29.61,0,0,1,19.94-9.67l7.82-.53a3.68,3.68,0,0,0,2-6.59l-35-27a3.69,3.69,0,0,0-5.94,2.88l-.47,44.24A3.68,3.68,0,0,0,168,153.8Z"/><path class="cls-6" d="M290,68l-9.7,60.41C264.47,90.25,212.88,74.49,173.43,68Z"/><path class="cls-7" d="M90.81,191.61l-11-61.81s29.35,48.29,95.38,61.81Z"/></g></g></svg>