<svg xmlns="http://www.w3.org/2000/svg" xmlns:xlink="http://www.w3.org/1999/xlink" viewBox="0 0 300 300"><defs><style>.cls-1{isolation:isolate;}.cls-2{fill:#d9f2ff;}.cls-3{fill:url(#Degradado_sin_nombre_67);}.cls-4{fill:url(#Degradado_sin_nombre_67-2);}.cls-5{fill:url(#Degradado_sin_nombre_67-3);}.cls-6{fill:url(#Degradado_sin_nombre_67-4);}.cls-7{mix-blend-mode:soft-light;fill:url(#Degradado_sin_nombre_32);}.cls-8{opacity:0.46;mix-blend-mode:multiply;fill:url(#Degradado_sin_nombre_5);}.cls-9{fill:#ff227e;}</style><linearGradient id="Degradado_sin_nombre_67" x1="197.57" y1="7.52" x2="83.49" y2="162.25" gradientUnits="userSpaceOnUse"><stop offset="0" stop-color="#ff8f00"/><stop offset="0.52" stop-color="#ff227e"/><stop offset="1" stop-color="#8c52f8"/></linearGradient><linearGradient id="Degradado_sin_nombre_67-2" x1="226.39" y1="29.33" x2="112.32" y2="184.06" xlink:href="#Degradado_sin_nombre_67"/><linearGradient id="Degradado_sin_nombre_67-3" x1="290.42" y1="76.53" x2="176.34" y2="231.25" xlink:href="#Degradado_sin_nombre_67"/><linearGradient id="Degradado_sin_nombre_67-4" x1="218.35" y1="23.39" x2="104.27" y2="178.12" xlink:href="#Degradado_sin_nombre_67"/><linearGradient id="Degradado_sin_nombre_32" x1="203" y1="42.81" x2="200.48" y2="108.23" gradientUnits="userSpaceOnUse"><stop offset="0" stop-color="#fff" stop-opacity="0"/><stop offset="1" stop-color="#fff"/></linearGradient><linearGradient id="Degradado_sin_nombre_5" x1="126.84" y1="91.36" x2="124.3" y2="157.43" gradientUnits="userSpaceOnUse"><stop offset="0" stop-color="#560971"/><stop offset="1" stop-color="#470973" stop-opacity="0"/></linearGradient></defs><g class="cls-1"><g id="Layer_1" data-name="Layer 1"><rect class="cls-2" width="300" height="300"/><path class="cls-3" d="M239.14,99.06l7.16-44.57H83.17L77,19.59a6.16,6.16,0,0,0-6.07-5.09H44.76a5,5,0,0,0-5,5.55A5.2,5.2,0,0,0,45,24.6H66.38a1.46,1.46,0,0,1,1.44,1.21L93.1,168.5H226.38a5.2,5.2,0,0,0,5.25-4.56,5.06,5.06,0,0,0-5-5.55h-125l-2.25-12.68H231.65ZM162.7,134.21a34.11,34.11,0,1,1,34.11-34.11A34.11,34.11,0,0,1,162.7,134.21Z"/><circle class="cls-4" cx="111.91" cy="184.62" r="8.76"/><circle class="cls-5" cx="210.72" cy="184.62" r="8.76"/><path class="cls-6" d="M155.55,117.81l3.88-4.29a21.85,21.85,0,0,1,14.71-7.13l5.77-.4a2.72,2.72,0,0,0,1.48-4.86L155.54,81.18a2.72,2.72,0,0,0-4.38,2.13L150.81,116A2.73,2.73,0,0,0,155.55,117.81Z"/><path class="cls-7" d="M245.55,54.49l-7.16,44.57c-11.68-28.14-49.74-39.77-78.85-44.57Z"/><path class="cls-8" d="M98.58,145.71,90.44,100.1s21.66,35.63,70.38,45.61Z"/><path d="M51.87,237.38l.52-6.92.38-8,.24-7.29v-2.45q4.45,0,9.3,0h3.47l5.22,0-.21,3.9-1.72-.09c-.47,0-1.12,0-1.95-.05s-1.68,0-2.55,0H60.93c-.55,0-1.38,0-2.48.06l-.3,6.41c1.65,0,3.32.06,5,.06,1.16,0,3.11,0,5.86-.11-.1,1.09-.18,2.41-.26,3.94l-5.52-.06c-1.42,0-3.19,0-5.31.11l-.3,6.76,2,0,4,0,3.92-.07,2.62-.13c-.12,1.4-.21,2.72-.26,4q-4.69,0-8.47,0l-5.94,0Z"/><path d="M91.67,223.29l4.77,0c2,0,3.64,0,5,0q-.48,6-.68,13.44-3,.6-5.42.84c-1.61.16-3,.24-4.12.24a24.36,24.36,0,0,1-5.89-.67A11.75,11.75,0,0,1,80.7,235,9.42,9.42,0,0,1,77.84,231a13.68,13.68,0,0,1-1-5.18,14.23,14.23,0,0,1,.73-4.5,13,13,0,0,1,2.17-4,12.55,12.55,0,0,1,3.47-3,13.44,13.44,0,0,1,4.32-1.64,24.91,24.91,0,0,1,4.83-.45,40.94,40.94,0,0,1,8.06.94c0,1.37.08,2.8.2,4.3a24.6,24.6,0,0,0-7.72-1.42,13.77,13.77,0,0,0-4.2.63,8.89,8.89,0,0,0-3.41,2A8.5,8.5,0,0,0,83.11,222a11.19,11.19,0,0,0-.75,4.05,9.77,9.77,0,0,0,.86,4.17A6,6,0,0,0,86.1,233a10.2,10.2,0,0,0,4.65,1,16.5,16.5,0,0,0,2.25-.17,17,17,0,0,0,2.71-.59L96,227H94.58c-.81,0-1.83,0-3.08.05C91.61,225.38,91.67,224.14,91.67,223.29Z"/><path d="M106.42,229.65c.11-1.17.18-2.39.2-3.65,1.75,0,3.3.07,4.66.07s2.94,0,4.68-.07c-.09,1-.16,2.24-.2,3.65-1.74-.07-3.31-.09-4.69-.09S108.17,229.58,106.42,229.65Z"/><path d="M120.48,236.85c-.1-1.83-.23-3.32-.38-4.48a15.61,15.61,0,0,0,6.43,1.61,6.61,6.61,0,0,0,2.16-.35,3.12,3.12,0,0,0,1.48-1,2.35,2.35,0,0,0,.48-1.44,2.57,2.57,0,0,0-.23-1.1,5.12,5.12,0,0,0-1.15-1.39q-1-1-3.69-3.27c-.84-.74-1.42-1.26-1.74-1.58a12.3,12.3,0,0,1-1.66-1.85,5.89,5.89,0,0,1-.84-1.63,6.15,6.15,0,0,1-.25-1.74,5.88,5.88,0,0,1,1-3.19,6.27,6.27,0,0,1,2.84-2.33,11.7,11.7,0,0,1,4.76-.84,29.9,29.9,0,0,1,5.81.64c.06,1.25.18,2.68.37,4.3a14.44,14.44,0,0,0-5.2-1.09,4.82,4.82,0,0,0-2.89.81,2.28,2.28,0,0,0-1.13,1.87,2.61,2.61,0,0,0,.08.6,2.48,2.48,0,0,0,.24.62,4.83,4.83,0,0,0,.56.77,8.59,8.59,0,0,0,1.17,1.12c.52.43,1,.78,1.33,1l2.23,2c.56.47,1.07.93,1.51,1.38a12.86,12.86,0,0,1,1.15,1.28,6.68,6.68,0,0,1,.75,1.17A5.61,5.61,0,0,1,136,230a5.54,5.54,0,0,1,.14,1.24,6.06,6.06,0,0,1-.71,2.86,5.89,5.89,0,0,1-2,2.22,8.68,8.68,0,0,1-2.89,1.2,16.18,16.18,0,0,1-3.32.33,20.2,20.2,0,0,1-2.7-.2C123.5,237.48,122.15,237.23,120.48,236.85Z"/><path d="M148.3,237.38l.39-5.28.4-7.86.25-7.73h-1.26l-1.17,0-1.12,0-4.17.12c.1-1.73.15-3,.16-3.95q5.21,0,10.89,0h6.49l3.46,0c-.12,1.71-.18,3-.18,3.95-2.18-.1-4.27-.16-6.27-.16h-1.39l-.21,3.3-.52,12.7,0,2.13c0,.87,0,1.79,0,2.74l-2.75,0Z"/><path d="M181.34,212.28a18,18,0,0,1,5.16.74,11.67,11.67,0,0,1,4.39,2.42,11.06,11.06,0,0,1,2.9,3.89,12.8,12.8,0,0,1,1,5.18,15.54,15.54,0,0,1-.92,5.32,11.23,11.23,0,0,1-2.86,4.38,12,12,0,0,1-4.7,2.72,19.59,19.59,0,0,1-11.38.07,11.85,11.85,0,0,1-4.59-2.55,10,10,0,0,1-2.76-4,14.07,14.07,0,0,1-.83-4.87,14.76,14.76,0,0,1,1-5.49,10.86,10.86,0,0,1,3.05-4.34,14,14,0,0,1,4.72-2.6A18.56,18.56,0,0,1,181.34,212.28Zm-.29,3.85a8.8,8.8,0,0,0-4.75,1.26,7.87,7.87,0,0,0-3.05,3.43,11,11,0,0,0-1,4.71,9.52,9.52,0,0,0,1,4.32,6.59,6.59,0,0,0,3,3,9.81,9.81,0,0,0,7.83.42,7.2,7.2,0,0,0,2.8-1.87,7.94,7.94,0,0,0,1.78-3,11.42,11.42,0,0,0,.6-3.69,11.23,11.23,0,0,0-.53-3.43,7.37,7.37,0,0,0-1.66-2.83,6.86,6.86,0,0,0-2.7-1.75A9.68,9.68,0,0,0,181.05,216.13Z"/><path d="M201.12,237.38q.54-5.38.81-12.38t.28-12.28l3.63,0c1,0,2.07,0,3.08-.05s2.06,0,3.18,0a26.37,26.37,0,0,1,3.75.23,7.22,7.22,0,0,1,2.94,1.08,5.54,5.54,0,0,1,1.9,2.06,6,6,0,0,1,.63,2.82,7.56,7.56,0,0,1-.24,1.93,6.91,6.91,0,0,1-.7,1.71,5.9,5.9,0,0,1-1.09,1.41,6.86,6.86,0,0,1-1.25,1,7.39,7.39,0,0,1-1.42.6c-.53.17-1.24.38-2.13.62l1.22,2.38q.6,1.14,2.26,4.09l1.83,3.19.87,1.65-2.92,0c-.58,0-1.6,0-3.06,0l-2-4.81c-.34-.73-.76-1.6-1.26-2.6l-2.18-4.39c-.22-.41-.52-1-.9-1.84a12.9,12.9,0,0,0,2.2.21,7.6,7.6,0,0,0,2.84-.5,4.06,4.06,0,0,0,2-1.56,4.17,4.17,0,0,0,.69-2.31,3.37,3.37,0,0,0-.3-1.41,2.61,2.61,0,0,0-1-1.1,4.13,4.13,0,0,0-1.68-.58,16,16,0,0,0-1.95-.12h-1.48c-.63,0-1.4,0-2.32,0l-.32,7.43-.34,13.55-2.8,0Z"/><path d="M227.44,237.38l.52-6.92.38-8,.23-7.29v-2.45q4.47,0,9.31,0h3.47l5.22,0-.22,3.9-1.71-.09c-.47,0-1.12,0-1.95-.05s-1.69,0-2.55,0H236.5q-.83,0-2.49.06l-.29,6.41c1.65,0,3.31.06,5,.06,1.15,0,3.11,0,5.85-.11-.09,1.09-.18,2.41-.25,3.94l-5.53-.06c-1.42,0-3.19,0-5.31.11l-.29,6.76,2,0,4,0,3.92-.07,2.62-.13c-.12,1.4-.2,2.72-.25,4q-4.69,0-8.47,0l-6,0Z"/><path class="cls-9" d="M67.7,259.2v9c0,3.84-1.81,5.49-5.19,5.49-3.21,0-4.87-1.69-4.87-5.45V259.1c0-3.74,2.06-5.37,5-5.37S67.7,255.34,67.7,259.2Zm-6.29-.42v9.89c0,1.2.41,1.82,1.24,1.82s1.26-.56,1.26-1.83v-9.91c0-1.21-.33-1.83-1.27-1.83S61.41,257.5,61.41,258.78Z"/><path class="cls-9" d="M76.94,273.38V254h4.12c.62,2.36,2.56,11.13,2.71,12h.09c-.21-2.58-.34-6.1-.34-8.8V254H87v19.36H82.82c-.4-1.84-2.52-11.86-2.64-12.48h-.1c.14,2.28.26,6.13.26,9.17v3.31Z"/><path class="cls-9" d="M96.55,254h3.73v16.1H105l-.33,3.26H96.55Z"/><path class="cls-9" d="M117.1,254v19.36h-3.72V254Z"/><path class="cls-9" d="M126.68,273.38V254h4.12c.61,2.36,2.55,11.13,2.71,12h.09c-.21-2.58-.34-6.1-.34-8.8V254h3.45v19.36h-4.15c-.4-1.84-2.52-11.86-2.65-12.48h-.1c.15,2.28.26,6.13.26,9.17v3.31Z"/><path class="cls-9" d="M154,264.83h-4v5.27h4.68l-.45,3.28h-8V254h7.93v3.29H150v4.25h4Z"/><path class="cls-9" d="M177.26,267.41v1.34c0,1.28.31,1.87,1.16,1.87s1.06-.88,1.06-1.79c0-1.83-.34-2.36-2.32-4-2.18-1.85-3.3-2.94-3.3-5.79s.92-5.32,4.58-5.32c3.9,0,4.47,2.66,4.47,4.87v1.12H179.4v-1.16c0-1.18-.2-1.76-.93-1.76s-.91.59-.91,1.69.21,1.74,1.81,3c2.85,2.24,3.87,3.49,3.87,6.68,0,3-1,5.53-4.88,5.53s-4.75-2.23-4.75-5.1v-1.16Z"/><path class="cls-9" d="M192.13,254h3.73v7.45h2.43V254H202v19.36h-3.74v-8.63h-2.43v8.63h-3.73Z"/><path class="cls-9" d="M221.34,259.2v9c0,3.84-1.81,5.49-5.19,5.49-3.21,0-4.86-1.69-4.86-5.45V259.1c0-3.74,2.05-5.37,5-5.37S221.34,255.34,221.34,259.2Zm-6.29-.42v9.89c0,1.2.41,1.82,1.24,1.82s1.26-.56,1.26-1.83v-9.91c0-1.21-.33-1.83-1.27-1.83C215.49,256.92,215.05,257.5,215.05,258.78Z"/><path class="cls-9" d="M230.58,254h5c3.21,0,4.81,1.7,4.81,5.13v1.18c0,3.39-1.28,5.44-5,5.44h-1.09v7.61h-3.73Zm3.73,8.73h.61c1.41,0,1.71-.79,1.71-2.4V259c0-1.25-.3-2.05-1.54-2.05h-.78Z"/></g></g></svg>