<svg xmlns="http://www.w3.org/2000/svg" xmlns:xlink="http://www.w3.org/1999/xlink" viewBox="0 0 497 197"><defs><style>.cls-1{isolation:isolate;}.cls-2{mix-blend-mode:soft-light;fill:url(#Degradado_sin_nombre_32);}.cls-3{opacity:0.46;mix-blend-mode:multiply;fill:url(#Degradado_sin_nombre_5);}.cls-4{fill:url(#Degradado_sin_nombre_67);}.cls-5{fill:url(#Degradado_sin_nombre_67-2);}.cls-6{fill:url(#Degradado_sin_nombre_67-3);}.cls-7{fill:url(#Degradado_sin_nombre_67-4);}.cls-8{fill:#ff227e;}</style><linearGradient id="Degradado_sin_nombre_32" x1="137.51" y1="54.12" x2="135.69" y2="101.61" gradientUnits="userSpaceOnUse"><stop offset="0" stop-color="#fff" stop-opacity="0"/><stop offset="1" stop-color="#fff"/></linearGradient><linearGradient id="Degradado_sin_nombre_5" x1="82.22" y1="89.37" x2="80.38" y2="137.34" gradientUnits="userSpaceOnUse"><stop offset="0" stop-color="#560971"/><stop offset="1" stop-color="#470973" stop-opacity="0"/></linearGradient><linearGradient id="Degradado_sin_nombre_67" x1="133.03" y1="28.5" x2="50.21" y2="140.84" gradientUnits="userSpaceOnUse"><stop offset="0" stop-color="#ff8f00"/><stop offset="0.52" stop-color="#ff227e"/><stop offset="1" stop-color="#8c52f8"/></linearGradient><linearGradient id="Degradado_sin_nombre_67-2" x1="154.5" y1="44.33" x2="71.68" y2="156.67" xlink:href="#Degradado_sin_nombre_67"/><linearGradient id="Degradado_sin_nombre_67-3" x1="200.99" y1="78.6" x2="118.16" y2="190.94" xlink:href="#Degradado_sin_nombre_67"/><linearGradient id="Degradado_sin_nombre_67-4" x1="148.66" y1="40.02" x2="65.84" y2="152.36" xlink:href="#Degradado_sin_nombre_67"/></defs><g class="cls-1"><g id="Layer_1" data-name="Layer 1"><path class="cls-2" d="M168.41,62.6,163.21,95C154.73,74.53,127.1,66.08,106,62.6Z"/><path class="cls-3" d="M61.7,128.83,55.79,95.71s15.73,25.87,51.1,33.12Z"/><path class="cls-4" d="M163.21,95l5.2-32.36H50L45.48,37.26a4.48,4.48,0,0,0-4.41-3.7h-19a3.66,3.66,0,0,0-3.65,4,3.79,3.79,0,0,0,3.81,3.31H37.78a1.06,1.06,0,0,1,1,.87L57.18,145.38H154a3.78,3.78,0,0,0,3.81-3.32,3.67,3.67,0,0,0-3.65-4H63.34l-1.64-9.21h96.08Zm-55.5,25.52a24.77,24.77,0,1,1,24.77-24.77A24.77,24.77,0,0,1,107.71,120.48Z"/><circle class="cls-5" cx="71.38" cy="157.08" r="6.36"/><circle class="cls-6" cx="143.13" cy="157.08" r="6.36"/><path class="cls-7" d="M103.06,108.57l2.82-3.11a15.91,15.91,0,0,1,10.69-5.18l4.18-.29a2,2,0,0,0,1.08-3.53L103.06,82a2,2,0,0,0-3.18,1.54l-.25,23.7A2,2,0,0,0,103.06,108.57Z"/><path d="M209.65,95.38l.71-9.35.51-10.81.31-9.84V62.06q6,0,12.58,0l4.69,0,7.05,0-.29,5.27-2.32-.12c-.63,0-1.51-.06-2.64-.07s-2.27,0-3.44,0h-4.92l-3.35.09-.4,8.67q3.35.08,6.74.07,2.34,0,7.91-.15c-.13,1.48-.24,3.26-.34,5.33L225,81.05q-2.88,0-7.18.15l-.39,9.13,2.68,0,5.38,0,5.3-.1,3.54-.17c-.17,1.89-.28,3.67-.35,5.34-4.23,0-8,0-11.45,0l-8,0Z"/><path d="M263.43,76.34q3.36,0,6.44,0,4,0,6.72,0-.64,8.18-.92,18.16-4.05.81-7.32,1.14c-2.18.22-4,.33-5.56.33a33.42,33.42,0,0,1-8-.9,16,16,0,0,1-6.21-2.93,12.79,12.79,0,0,1-3.87-5.34,18.46,18.46,0,0,1-1.33-7,18.85,18.85,0,0,1,1-6.08,17.35,17.35,0,0,1,2.93-5.37A16.81,16.81,0,0,1,252,64.29a18.36,18.36,0,0,1,5.84-2.22,34.24,34.24,0,0,1,6.53-.6,55.09,55.09,0,0,1,10.89,1.27q0,2.77.27,5.81a33.37,33.37,0,0,0-10.43-1.93,18.48,18.48,0,0,0-5.67.86,12.11,12.11,0,0,0-4.62,2.65,11.46,11.46,0,0,0-2.95,4.44,15.12,15.12,0,0,0-1,5.48A13.17,13.17,0,0,0,252,85.68a8.17,8.17,0,0,0,3.9,3.84,13.71,13.71,0,0,0,6.27,1.37,24.72,24.72,0,0,0,3.06-.23,25.39,25.39,0,0,0,3.66-.79l.4-8.57-1.93,0c-1.1,0-2.48,0-4.16.08C263.36,79.16,263.43,77.5,263.43,76.34Z"/><path d="M283.37,84.93c.15-1.57.24-3.22.27-4.93q3.54.1,6.3.1t6.32-.1c-.13,1.39-.22,3-.27,4.93q-3.54-.12-6.34-.12T283.37,84.93Z"/><path d="M302.36,94.68q-.19-3.72-.51-6.06a21.27,21.27,0,0,0,8.69,2.17,8.72,8.72,0,0,0,2.92-.47,4.18,4.18,0,0,0,2-1.34,3.2,3.2,0,0,0,.65-2,3.43,3.43,0,0,0-.32-1.49,7.1,7.1,0,0,0-1.55-1.88q-1.39-1.34-5-4.41c-1.14-1-1.93-1.7-2.36-2.13a17.89,17.89,0,0,1-2.24-2.5,7.86,7.86,0,0,1-1.13-2.21,7.74,7.74,0,0,1-.34-2.34,7.92,7.92,0,0,1,1.28-4.31,8.37,8.37,0,0,1,3.84-3.15,15.79,15.79,0,0,1,6.43-1.14,41.33,41.33,0,0,1,7.86.86q.12,2.53.49,5.81a19.6,19.6,0,0,0-7-1.47,6.55,6.55,0,0,0-3.91,1.09,3.08,3.08,0,0,0-1.52,2.53,3.32,3.32,0,0,0,.1.81,3.65,3.65,0,0,0,.32.83,6.5,6.5,0,0,0,.76,1,12.59,12.59,0,0,0,1.59,1.52c.7.57,1.3,1,1.79,1.4l3,2.74c.76.63,1.44,1.25,2,1.85a19.26,19.26,0,0,1,1.55,1.73,9.22,9.22,0,0,1,1,1.59,7,7,0,0,1,.55,1.55,7.56,7.56,0,0,1,.18,1.67,8.15,8.15,0,0,1-.95,3.87,7.91,7.91,0,0,1-2.73,3A11.16,11.16,0,0,1,316,95.52a21.63,21.63,0,0,1-4.49.45,28.65,28.65,0,0,1-3.64-.27C306.45,95.52,304.62,95.18,302.36,94.68Z"/><path d="M340,95.38l.53-7.13L341,77.63l.35-10.44h-1.71l-1.59,0-1.51,0-5.63.17c.13-2.34.2-4.12.22-5.34q7,0,14.72,0l8.76,0,4.69,0c-.17,2.31-.25,4.1-.25,5.34-2.94-.14-5.77-.21-8.47-.21h-1.88l-.29,4.46-.7,17.15-.05,2.88c0,1.18,0,2.42,0,3.7l-3.72,0Z"/><path d="M384.6,61.47a24.51,24.51,0,0,1,7,1,16,16,0,0,1,5.93,3.26A15,15,0,0,1,401.43,71a17.5,17.5,0,0,1,1.31,7,20.91,20.91,0,0,1-1.24,7.19,15.15,15.15,0,0,1-3.86,5.91,16.18,16.18,0,0,1-6.36,3.67,26.3,26.3,0,0,1-15.38.1,16.14,16.14,0,0,1-6.2-3.44A13.45,13.45,0,0,1,366,86.05a18.83,18.83,0,0,1-1.13-6.58A19.91,19.91,0,0,1,366.26,72a14.64,14.64,0,0,1,4.12-5.86,18.88,18.88,0,0,1,6.37-3.51A25,25,0,0,1,384.6,61.47Zm-.39,5.2a12,12,0,0,0-6.42,1.7A10.69,10.69,0,0,0,373.68,73a14.78,14.78,0,0,0-1.38,6.36,13,13,0,0,0,1.33,5.85,9,9,0,0,0,4.09,4.07,13.27,13.27,0,0,0,10.57.58,10.11,10.11,0,0,0,3.8-2.53,10.91,10.91,0,0,0,2.4-4.09,15.47,15.47,0,0,0,.81-5,15,15,0,0,0-.72-4.64,10,10,0,0,0-2.24-3.82,9.17,9.17,0,0,0-3.65-2.37A13.14,13.14,0,0,0,384.21,66.67Z"/><path d="M411.33,95.38q.74-7.27,1.11-16.72t.37-16.6c1.95,0,3.58,0,4.9,0s2.8,0,4.16-.08,2.8-.07,4.31-.07a36.57,36.57,0,0,1,5.07.32,9.54,9.54,0,0,1,4,1.46,7.51,7.51,0,0,1,2.58,2.79,8.21,8.21,0,0,1,.84,3.8,10.4,10.4,0,0,1-.32,2.6,8.9,8.9,0,0,1-.94,2.32,8.26,8.26,0,0,1-1.48,1.91,8.53,8.53,0,0,1-1.69,1.29,10,10,0,0,1-1.92.82c-.72.23-1.68.5-2.88.83l1.66,3.22c.54,1,1.55,2.87,3.05,5.52l2.47,4.32q.19.34,1.17,2.22l-3.94,0-4.14,0L427,88.89c-.48-1-1-2.16-1.71-3.52l-2.95-5.93c-.29-.55-.7-1.38-1.22-2.49a16.61,16.61,0,0,0,3,.29,10.33,10.33,0,0,0,3.84-.68,5.52,5.52,0,0,0,2.66-2.11,5.59,5.59,0,0,0,.93-3.11,4.51,4.51,0,0,0-.4-1.91,3.56,3.56,0,0,0-1.36-1.49,5.46,5.46,0,0,0-2.27-.78,21.27,21.27,0,0,0-2.64-.17l-2,0c-.84,0-1.89,0-3.12,0l-.44,10-.46,18.31-3.79,0Z"/><path d="M446.9,95.38l.71-9.35.51-10.81.32-9.84V62.06q6,0,12.57,0l4.69,0,7.06,0-.3,5.27-2.32-.12c-.63,0-1.51-.06-2.63-.07s-2.27,0-3.45,0h-4.92l-3.35.09-.4,8.67q3.35.08,6.74.07c1.57,0,4.2,0,7.92-.15-.13,1.48-.25,3.26-.35,5.33l-7.47-.08q-2.88,0-7.17.15l-.4,9.13,2.69,0,5.37,0,5.3-.1,3.54-.17c-.16,1.89-.28,3.67-.34,5.34q-6.35,0-11.45,0l-8,0Z"/><path class="cls-8" d="M245.55,133.77v10.52c0,4.5-2.12,6.43-6.08,6.43-3.76,0-5.7-2-5.7-6.39V133.65c0-4.38,2.41-6.29,5.9-6.29S245.55,129.24,245.55,133.77Zm-7.37-.49v11.59c0,1.4.48,2.13,1.46,2.13s1.48-.66,1.48-2.15V133.24c0-1.42-.4-2.14-1.49-2.14C238.7,131.1,238.18,131.77,238.18,133.28Z"/><path class="cls-8" d="M256.4,150.38V127.7h4.82c.72,2.77,3,13,3.18,14h.1c-.24-3-.39-7.15-.39-10.32V127.7h4.05v22.68h-4.87c-.48-2.16-3-13.89-3.1-14.62h-.12c.17,2.67.3,7.18.3,10.75v3.87Z"/><path class="cls-8" d="M279.38,127.7h4.37v18.87h5.48l-.39,3.81h-9.46Z"/><path class="cls-8" d="M303.47,127.7v22.68h-4.36V127.7Z"/><path class="cls-8" d="M314.71,150.38V127.7h4.82c.72,2.77,3,13,3.18,14h.1c-.24-3-.39-7.15-.39-10.32V127.7h4.05v22.68H321.6c-.47-2.16-3-13.89-3.1-14.62h-.12c.17,2.67.3,7.18.3,10.75v3.87Z"/><path class="cls-8" d="M346.71,140.36H342v6.19h5.48l-.52,3.83h-9.33V127.7H347v3.85H342v5h4.67Z"/><path class="cls-8" d="M374,143.39V145c0,1.49.37,2.19,1.36,2.19s1.24-1,1.24-2.1c0-2.14-.4-2.76-2.72-4.7-2.55-2.16-3.87-3.45-3.87-6.79s1.08-6.23,5.38-6.23c4.56,0,5.23,3.12,5.23,5.71v1.31h-4.12V133c0-1.38-.22-2.06-1.09-2.06s-1.06.7-1.06,2,.25,2,2.12,3.51c3.34,2.62,4.54,4.09,4.54,7.82,0,3.56-1.22,6.48-5.73,6.48-4.32,0-5.56-2.61-5.56-6v-1.36Z"/><path class="cls-8" d="M391.44,127.7h4.37v8.73h2.85V127.7h4.39v22.68h-4.39v-10.1h-2.85v10.1h-4.37Z"/><path class="cls-8" d="M425.68,133.77v10.52c0,4.5-2.12,6.43-6.08,6.43-3.76,0-5.7-2-5.7-6.39V133.65c0-4.38,2.41-6.29,5.9-6.29S425.68,129.24,425.68,133.77Zm-7.37-.49v11.59c0,1.4.48,2.13,1.46,2.13s1.48-.66,1.48-2.15V133.24c0-1.42-.4-2.14-1.49-2.14C418.83,131.1,418.31,131.77,418.31,133.28Z"/><path class="cls-8" d="M436.53,127.7h5.81c3.77,0,5.64,2,5.64,6v1.38c0,4-1.5,6.37-5.8,6.37H440.9v8.92h-4.37Zm4.37,10.23h.7c1.66,0,2-.93,2-2.82v-1.56c0-1.47-.35-2.42-1.8-2.42h-.91Z"/></g></g></svg>